<svg xmlns="http://www.w3.org/2000/svg" width="40" height="48" viewBox="0 0 40 48">
    <g fill="none" fill-rule="evenodd">
        <g fill="#FFF" fill-rule="nonzero">
            <g>
                <path d="M23.921 23.542c.938.937 2.558.281 2.558-1.06v-1.998h11.99c.828 0 1.5-.671 1.5-1.499 0-.827-.672-1.499-1.5-1.499H26.48v-1.998c0-1.335-1.62-2.003-2.558-1.06l-3.497 3.498c-.585.586-.585 1.535 0 2.12l3.497 3.496z" transform="translate(-220 -147) translate(220 147)"/>
                <path fill-opacity=".38" d="M36.032 24.42c-.94-.938-2.558-.273-2.558 1.06v1.999h-11.99c-.828 0-1.5.671-1.5 1.498 0 .828.672 1.5 1.5 1.5h11.99v1.998c0 1.337 1.62 1.996 2.558 1.059l3.497-3.497c.586-.586.586-1.535 0-2.12l-3.497-3.496z" transform="translate(-220 -147) translate(220 147)"/>
                <path d="M29.85 34.473h-1.872v7.494c0 1.103-.895 1.999-1.998 1.999H5.995c-1.103 0-1.998-.896-1.998-1.999V5.995c0-1.103.895-1.998 1.998-1.998h1c1.103 0 1.998.895 1.998 1.998s.895 1.999 1.998 1.999h9.993c1.103 0 1.998-.896 1.998-1.999 0-1.103.895-1.998 1.998-1.998h1c1.103 0 1.998.895 1.998 1.998v4.898c.97.63 1.713 1.535 2.124 2.596h1.873V5.995C31.975 2.69 29.285 0 25.98 0H5.995C2.69 0 0 2.69 0 5.995v35.972c0 3.306 2.69 5.996 5.995 5.996H25.98c3.305 0 5.995-2.69 5.995-5.996V37.07c-.97-.63-1.713-1.535-2.124-2.596z" transform="translate(-220 -147) translate(220 147)"/>
            </g>
        </g>
    </g>
</svg>
